G04*
G04 #@! TF.GenerationSoftware,Altium Limited,Altium Designer,18.1.7 (191)*
G04*
G04 Layer_Physical_Order=2*
G04 Layer_Color=16711680*
%FSLAX25Y25*%
%MOIN*%
G70*
G01*
G75*
%ADD27C,0.01000*%
%ADD31R,0.05512X0.05512*%
%ADD32C,0.05512*%
%ADD33C,0.06000*%
%ADD34C,0.07087*%
%ADD35C,0.19685*%
%ADD36O,0.11811X0.07874*%
%ADD37C,0.11811*%
%ADD38C,0.02500*%
G36*
X186434Y292624D02*
X186352Y292000D01*
X186544Y290538D01*
X187108Y289176D01*
X188006Y288006D01*
X189176Y287108D01*
X190538Y286544D01*
X192000Y286352D01*
X193462Y286544D01*
X193584Y286595D01*
X194000Y286317D01*
Y261083D01*
X182126D01*
X182007Y261033D01*
X181526D01*
Y260552D01*
X181476Y260433D01*
Y247441D01*
X181526Y247322D01*
Y246841D01*
X182007D01*
X182126Y246792D01*
X194000D01*
Y53209D01*
X182126D01*
X182007Y53159D01*
X181526D01*
Y52678D01*
X181476Y52559D01*
Y39567D01*
X181526Y39448D01*
Y38967D01*
X182007D01*
X182126Y38917D01*
X194000D01*
Y13683D01*
X193584Y13405D01*
X193462Y13456D01*
X192000Y13648D01*
X190538Y13456D01*
X189176Y12892D01*
X188006Y11994D01*
X187108Y10824D01*
X186544Y9462D01*
X186352Y8000D01*
X13648D01*
X13456Y9462D01*
X12892Y10824D01*
X11994Y11994D01*
X10824Y12892D01*
X9462Y13456D01*
X8000Y13648D01*
X7376Y13566D01*
X7000Y13896D01*
Y188275D01*
X7500Y188542D01*
X8646Y188194D01*
X9500Y188110D01*
Y195000D01*
Y201890D01*
X8646Y201806D01*
X7500Y201458D01*
X7000Y201726D01*
Y248274D01*
X7500Y248542D01*
X8646Y248194D01*
X9500Y248110D01*
Y255000D01*
Y261890D01*
X8646Y261806D01*
X7500Y261458D01*
X7000Y261725D01*
Y286104D01*
X7376Y286434D01*
X8000Y286352D01*
X9462Y286544D01*
X10824Y287108D01*
X11994Y288006D01*
X12892Y289176D01*
X13456Y290538D01*
X13648Y292000D01*
X13566Y292624D01*
X13896Y293000D01*
X186104D01*
X186434Y292624D01*
D02*
G37*
%LPC*%
G36*
X10500Y261890D02*
Y255500D01*
X16890D01*
X16806Y256354D01*
X16411Y257655D01*
X15769Y258855D01*
X14907Y259907D01*
X13855Y260770D01*
X12655Y261411D01*
X11354Y261806D01*
X10500Y261890D01*
D02*
G37*
G36*
X29669Y259576D02*
X25732D01*
X24548Y259420D01*
X23444Y258963D01*
X22497Y258236D01*
X21769Y257288D01*
X21312Y256184D01*
X21156Y255000D01*
X21312Y253816D01*
X21769Y252712D01*
X22497Y251764D01*
X23444Y251037D01*
X24548Y250580D01*
X25732Y250424D01*
X29669D01*
X30854Y250580D01*
X31957Y251037D01*
X32905Y251764D01*
X33632Y252712D01*
X34089Y253816D01*
X34245Y255000D01*
X34089Y256184D01*
X33632Y257288D01*
X32905Y258236D01*
X31957Y258963D01*
X30854Y259420D01*
X29669Y259576D01*
D02*
G37*
G36*
X16890Y254500D02*
X10500D01*
Y248110D01*
X11354Y248194D01*
X12655Y248589D01*
X13855Y249231D01*
X14907Y250093D01*
X15769Y251145D01*
X16411Y252345D01*
X16806Y253646D01*
X16890Y254500D01*
D02*
G37*
G36*
X165000Y229179D02*
X163918Y229037D01*
X162910Y228619D01*
X162045Y227955D01*
X161381Y227090D01*
X160963Y226082D01*
X160821Y225000D01*
X160963Y223918D01*
X161381Y222910D01*
X162045Y222045D01*
X162910Y221381D01*
X163918Y220963D01*
X165000Y220821D01*
X166082Y220963D01*
X167089Y221381D01*
X167955Y222045D01*
X168619Y222910D01*
X169037Y223918D01*
X169179Y225000D01*
X169037Y226082D01*
X168619Y227090D01*
X167955Y227955D01*
X167089Y228619D01*
X166082Y229037D01*
X165000Y229179D01*
D02*
G37*
G36*
X185000Y221640D02*
X183918Y221497D01*
X182911Y221080D01*
X182045Y220416D01*
X181381Y219550D01*
X180963Y218542D01*
X180821Y217461D01*
X180963Y216379D01*
X181381Y215371D01*
X182045Y214506D01*
X182911Y213842D01*
X183918Y213424D01*
X185000Y213282D01*
X186082Y213424D01*
X187090Y213842D01*
X187955Y214506D01*
X188619Y215371D01*
X189037Y216379D01*
X189179Y217461D01*
X189037Y218542D01*
X188619Y219550D01*
X187955Y220416D01*
X187090Y221080D01*
X186082Y221497D01*
X185000Y221640D01*
D02*
G37*
G36*
X165000Y214179D02*
X163918Y214037D01*
X162910Y213619D01*
X162045Y212955D01*
X161381Y212089D01*
X160963Y211082D01*
X160821Y210000D01*
X160963Y208918D01*
X161381Y207910D01*
X162045Y207045D01*
X162910Y206381D01*
X163918Y205963D01*
X165000Y205821D01*
X166082Y205963D01*
X167089Y206381D01*
X167955Y207045D01*
X168619Y207910D01*
X169037Y208918D01*
X169179Y210000D01*
X169037Y211082D01*
X168619Y212089D01*
X167955Y212955D01*
X167089Y213619D01*
X166082Y214037D01*
X165000Y214179D01*
D02*
G37*
G36*
X185500Y206977D02*
Y202961D01*
X189517D01*
X189426Y203647D01*
X188969Y204752D01*
X188240Y205701D01*
X187291Y206429D01*
X186186Y206887D01*
X185500Y206977D01*
D02*
G37*
G36*
X184500Y206977D02*
X183814Y206887D01*
X182709Y206429D01*
X181760Y205701D01*
X181031Y204752D01*
X180574Y203647D01*
X180483Y202961D01*
X184500D01*
Y206977D01*
D02*
G37*
G36*
Y201961D02*
X180483D01*
X180574Y201275D01*
X181031Y200169D01*
X181760Y199220D01*
X182709Y198492D01*
X183814Y198034D01*
X184500Y197944D01*
Y201961D01*
D02*
G37*
G36*
X189517D02*
X185500D01*
Y197944D01*
X186186Y198034D01*
X187291Y198492D01*
X188240Y199220D01*
X188969Y200169D01*
X189426Y201275D01*
X189517Y201961D01*
D02*
G37*
G36*
X10500Y201890D02*
Y195500D01*
X16890D01*
X16806Y196354D01*
X16411Y197655D01*
X15769Y198855D01*
X14907Y199907D01*
X13855Y200769D01*
X12655Y201411D01*
X11354Y201806D01*
X10500Y201890D01*
D02*
G37*
G36*
X165500Y199517D02*
Y195500D01*
X169517D01*
X169426Y196186D01*
X168969Y197291D01*
X168240Y198240D01*
X167291Y198969D01*
X166186Y199426D01*
X165500Y199517D01*
D02*
G37*
G36*
X164500D02*
X163814Y199426D01*
X162709Y198969D01*
X161760Y198240D01*
X161031Y197291D01*
X160574Y196186D01*
X160483Y195500D01*
X164500D01*
Y199517D01*
D02*
G37*
G36*
X169517Y194500D02*
X165500D01*
Y190483D01*
X166186Y190574D01*
X167291Y191031D01*
X168240Y191760D01*
X168969Y192709D01*
X169426Y193814D01*
X169517Y194500D01*
D02*
G37*
G36*
X164500D02*
X160483D01*
X160574Y193814D01*
X161031Y192709D01*
X161760Y191760D01*
X162709Y191031D01*
X163814Y190574D01*
X164500Y190483D01*
Y194500D01*
D02*
G37*
G36*
X29669Y199576D02*
X25732D01*
X24548Y199420D01*
X23444Y198963D01*
X22497Y198236D01*
X21769Y197288D01*
X21312Y196184D01*
X21156Y195000D01*
X21312Y193816D01*
X21769Y192712D01*
X22497Y191764D01*
X23444Y191037D01*
X24548Y190580D01*
X25732Y190424D01*
X29669D01*
X30854Y190580D01*
X31957Y191037D01*
X32905Y191764D01*
X33632Y192712D01*
X34089Y193816D01*
X34245Y195000D01*
X34089Y196184D01*
X33632Y197288D01*
X32905Y198236D01*
X31957Y198963D01*
X30854Y199420D01*
X29669Y199576D01*
D02*
G37*
G36*
X16890Y194500D02*
X10500D01*
Y188110D01*
X11354Y188194D01*
X12655Y188589D01*
X13855Y189231D01*
X14907Y190093D01*
X15769Y191145D01*
X16411Y192345D01*
X16806Y193646D01*
X16890Y194500D01*
D02*
G37*
G36*
X185000Y191640D02*
X183918Y191497D01*
X182911Y191080D01*
X182045Y190416D01*
X181381Y189550D01*
X180963Y188542D01*
X180821Y187461D01*
X180963Y186379D01*
X181381Y185371D01*
X182045Y184506D01*
X182911Y183842D01*
X183918Y183424D01*
X185000Y183282D01*
X186082Y183424D01*
X187090Y183842D01*
X187955Y184506D01*
X188619Y185371D01*
X189037Y186379D01*
X189179Y187461D01*
X189037Y188542D01*
X188619Y189550D01*
X187955Y190416D01*
X187090Y191080D01*
X186082Y191497D01*
X185000Y191640D01*
D02*
G37*
G36*
X165000Y184179D02*
X163918Y184037D01*
X162910Y183619D01*
X162045Y182955D01*
X161381Y182089D01*
X160963Y181082D01*
X160821Y180000D01*
X160963Y178918D01*
X161381Y177910D01*
X162045Y177045D01*
X162910Y176381D01*
X163918Y175963D01*
X165000Y175821D01*
X166082Y175963D01*
X167089Y176381D01*
X167955Y177045D01*
X168619Y177910D01*
X169037Y178918D01*
X169179Y180000D01*
X169037Y181082D01*
X168619Y182089D01*
X167955Y182955D01*
X167089Y183619D01*
X166082Y184037D01*
X165000Y184179D01*
D02*
G37*
G36*
X185000Y176640D02*
X183918Y176497D01*
X182911Y176080D01*
X182045Y175416D01*
X181381Y174550D01*
X180963Y173542D01*
X180821Y172461D01*
X180963Y171379D01*
X181381Y170371D01*
X182045Y169506D01*
X182911Y168842D01*
X183918Y168424D01*
X185000Y168282D01*
X186082Y168424D01*
X187090Y168842D01*
X187955Y169506D01*
X188619Y170371D01*
X189037Y171379D01*
X189179Y172461D01*
X189037Y173542D01*
X188619Y174550D01*
X187955Y175416D01*
X187090Y176080D01*
X186082Y176497D01*
X185000Y176640D01*
D02*
G37*
G36*
X165500Y169517D02*
Y165500D01*
X169517D01*
X169426Y166186D01*
X168969Y167291D01*
X168240Y168240D01*
X167291Y168969D01*
X166186Y169426D01*
X165500Y169517D01*
D02*
G37*
G36*
X164500D02*
X163814Y169426D01*
X162709Y168969D01*
X161760Y168240D01*
X161031Y167291D01*
X160574Y166186D01*
X160483Y165500D01*
X164500D01*
Y169517D01*
D02*
G37*
G36*
X169517Y164500D02*
X165500D01*
Y160483D01*
X166186Y160574D01*
X167291Y161031D01*
X168240Y161760D01*
X168969Y162709D01*
X169426Y163814D01*
X169517Y164500D01*
D02*
G37*
G36*
X164500D02*
X160483D01*
X160574Y163814D01*
X161031Y162709D01*
X161760Y161760D01*
X162709Y161031D01*
X163814Y160574D01*
X164500Y160483D01*
Y164500D01*
D02*
G37*
G36*
X185000Y161640D02*
X183918Y161497D01*
X182911Y161080D01*
X182045Y160416D01*
X181381Y159550D01*
X180963Y158542D01*
X180821Y157461D01*
X180963Y156379D01*
X181381Y155371D01*
X182045Y154506D01*
X182911Y153841D01*
X183918Y153424D01*
X185000Y153282D01*
X186082Y153424D01*
X187090Y153841D01*
X187955Y154506D01*
X188619Y155371D01*
X189037Y156379D01*
X189179Y157461D01*
X189037Y158542D01*
X188619Y159550D01*
X187955Y160416D01*
X187090Y161080D01*
X186082Y161497D01*
X185000Y161640D01*
D02*
G37*
G36*
X165000Y154179D02*
X163918Y154037D01*
X162910Y153619D01*
X162045Y152955D01*
X161381Y152090D01*
X160963Y151082D01*
X160821Y150000D01*
X160963Y148918D01*
X161381Y147910D01*
X162045Y147045D01*
X162910Y146381D01*
X163918Y145963D01*
X165000Y145821D01*
X166082Y145963D01*
X167089Y146381D01*
X167955Y147045D01*
X168619Y147910D01*
X169037Y148918D01*
X169179Y150000D01*
X169037Y151082D01*
X168619Y152090D01*
X167955Y152955D01*
X167089Y153619D01*
X166082Y154037D01*
X165000Y154179D01*
D02*
G37*
G36*
X185000Y146640D02*
X183918Y146497D01*
X182911Y146080D01*
X182045Y145416D01*
X181381Y144550D01*
X180963Y143542D01*
X180821Y142461D01*
X180963Y141379D01*
X181381Y140371D01*
X182045Y139506D01*
X182911Y138841D01*
X183918Y138424D01*
X185000Y138282D01*
X186082Y138424D01*
X187090Y138841D01*
X187955Y139506D01*
X188619Y140371D01*
X189037Y141379D01*
X189179Y142461D01*
X189037Y143542D01*
X188619Y144550D01*
X187955Y145416D01*
X187090Y146080D01*
X186082Y146497D01*
X185000Y146640D01*
D02*
G37*
G36*
X165500Y139517D02*
Y135500D01*
X169517D01*
X169426Y136186D01*
X168969Y137291D01*
X168240Y138240D01*
X167291Y138969D01*
X166186Y139426D01*
X165500Y139517D01*
D02*
G37*
G36*
X164500D02*
X163814Y139426D01*
X162709Y138969D01*
X161760Y138240D01*
X161031Y137291D01*
X160574Y136186D01*
X160483Y135500D01*
X164500D01*
Y139517D01*
D02*
G37*
G36*
X35500Y145030D02*
Y134693D01*
X45837D01*
X45742Y135894D01*
X45344Y137554D01*
X44691Y139130D01*
X43799Y140586D01*
X42691Y141883D01*
X41393Y142992D01*
X39938Y143884D01*
X38361Y144537D01*
X36701Y144935D01*
X35500Y145030D01*
D02*
G37*
G36*
X34500D02*
X33299Y144935D01*
X31639Y144537D01*
X30062Y143884D01*
X28607Y142992D01*
X27310Y141883D01*
X26201Y140586D01*
X25309Y139130D01*
X24656Y137554D01*
X24258Y135894D01*
X24163Y134693D01*
X34500D01*
Y145030D01*
D02*
G37*
G36*
X169517Y134500D02*
X165500D01*
Y130483D01*
X166186Y130574D01*
X167291Y131031D01*
X168240Y131760D01*
X168969Y132709D01*
X169426Y133814D01*
X169517Y134500D01*
D02*
G37*
G36*
X164500D02*
X160483D01*
X160574Y133814D01*
X161031Y132709D01*
X161760Y131760D01*
X162709Y131031D01*
X163814Y130574D01*
X164500Y130483D01*
Y134500D01*
D02*
G37*
G36*
X34500Y133693D02*
X24163D01*
X24258Y132492D01*
X24656Y130832D01*
X25309Y129255D01*
X26201Y127800D01*
X27310Y126502D01*
X28607Y125394D01*
X30062Y124502D01*
X31639Y123849D01*
X33299Y123451D01*
X34500Y123356D01*
Y133693D01*
D02*
G37*
G36*
X45837D02*
X35500D01*
Y123356D01*
X36701Y123451D01*
X38361Y123849D01*
X39938Y124502D01*
X41393Y125394D01*
X42691Y126502D01*
X43799Y127800D01*
X44691Y129255D01*
X45344Y130832D01*
X45742Y132492D01*
X45837Y133693D01*
D02*
G37*
G36*
X185000Y131640D02*
X183918Y131497D01*
X182911Y131080D01*
X182045Y130416D01*
X181381Y129550D01*
X180963Y128542D01*
X180821Y127461D01*
X180963Y126379D01*
X181381Y125371D01*
X182045Y124506D01*
X182911Y123842D01*
X183918Y123424D01*
X185000Y123282D01*
X186082Y123424D01*
X187090Y123842D01*
X187955Y124506D01*
X188619Y125371D01*
X189037Y126379D01*
X189179Y127461D01*
X189037Y128542D01*
X188619Y129550D01*
X187955Y130416D01*
X187090Y131080D01*
X186082Y131497D01*
X185000Y131640D01*
D02*
G37*
G36*
X165000Y124179D02*
X163918Y124037D01*
X162910Y123619D01*
X162045Y122955D01*
X161381Y122090D01*
X160963Y121082D01*
X160821Y120000D01*
X160963Y118918D01*
X161381Y117911D01*
X162045Y117045D01*
X162910Y116381D01*
X163918Y115963D01*
X165000Y115821D01*
X166082Y115963D01*
X167089Y116381D01*
X167955Y117045D01*
X168619Y117911D01*
X169020Y118878D01*
X181524D01*
X181666Y118666D01*
X182278Y118257D01*
X183000Y118114D01*
X183722Y118257D01*
X184334Y118666D01*
X184743Y119278D01*
X184886Y120000D01*
X184743Y120722D01*
X184334Y121334D01*
X183722Y121743D01*
X183000Y121886D01*
X182278Y121743D01*
X181666Y121334D01*
X181524Y121122D01*
X169020D01*
X168619Y122090D01*
X167955Y122955D01*
X167089Y123619D01*
X166082Y124037D01*
X165000Y124179D01*
D02*
G37*
G36*
X102842Y116852D02*
Y115157D01*
X104537D01*
X104462Y115535D01*
X103965Y116280D01*
X103220Y116777D01*
X102842Y116852D01*
D02*
G37*
G36*
X101842D02*
X101465Y116777D01*
X100720Y116280D01*
X100223Y115535D01*
X100148Y115157D01*
X101842D01*
Y116852D01*
D02*
G37*
G36*
X104537Y114157D02*
X102842D01*
Y112463D01*
X103220Y112538D01*
X103965Y113035D01*
X104462Y113780D01*
X104537Y114157D01*
D02*
G37*
G36*
X101842D02*
X100148D01*
X100223Y113780D01*
X100720Y113035D01*
X101465Y112538D01*
X101842Y112463D01*
Y114157D01*
D02*
G37*
G36*
X185000Y116640D02*
X183918Y116497D01*
X182911Y116080D01*
X182045Y115416D01*
X181381Y114550D01*
X180963Y113542D01*
X180821Y112461D01*
X180963Y111379D01*
X181381Y110371D01*
X182045Y109506D01*
X182911Y108842D01*
X183918Y108424D01*
X185000Y108282D01*
X186082Y108424D01*
X187090Y108842D01*
X187955Y109506D01*
X188619Y110371D01*
X189037Y111379D01*
X189179Y112461D01*
X189037Y113542D01*
X188619Y114550D01*
X187955Y115416D01*
X187090Y116080D01*
X186082Y116497D01*
X185000Y116640D01*
D02*
G37*
G36*
X77842Y108195D02*
Y106500D01*
X79537D01*
X79462Y106878D01*
X78965Y107622D01*
X78220Y108119D01*
X77842Y108195D01*
D02*
G37*
G36*
X76842D02*
X76465Y108119D01*
X75720Y107622D01*
X75223Y106878D01*
X75148Y106500D01*
X76842D01*
Y108195D01*
D02*
G37*
G36*
X165500Y109517D02*
Y105500D01*
X169517D01*
X169426Y106186D01*
X168969Y107291D01*
X168240Y108240D01*
X167291Y108969D01*
X166186Y109426D01*
X165500Y109517D01*
D02*
G37*
G36*
X164500D02*
X163814Y109426D01*
X162709Y108969D01*
X161760Y108240D01*
X161031Y107291D01*
X160574Y106186D01*
X160483Y105500D01*
X164500D01*
Y109517D01*
D02*
G37*
G36*
X79537Y105500D02*
X77842D01*
Y103805D01*
X78220Y103881D01*
X78965Y104378D01*
X79462Y105122D01*
X79537Y105500D01*
D02*
G37*
G36*
X76842D02*
X75148D01*
X75223Y105122D01*
X75720Y104378D01*
X76465Y103881D01*
X76842Y103805D01*
Y105500D01*
D02*
G37*
G36*
X45500Y106754D02*
Y103532D01*
X48722D01*
X48659Y104012D01*
X48281Y104926D01*
X47679Y105710D01*
X46894Y106312D01*
X45981Y106691D01*
X45500Y106754D01*
D02*
G37*
G36*
X44500D02*
X44019Y106691D01*
X43106Y106312D01*
X42321Y105710D01*
X41719Y104926D01*
X41341Y104012D01*
X41278Y103532D01*
X44500D01*
Y106754D01*
D02*
G37*
G36*
X169517Y104500D02*
X165500D01*
Y100483D01*
X166186Y100574D01*
X167291Y101031D01*
X168240Y101760D01*
X168969Y102709D01*
X169426Y103814D01*
X169517Y104500D01*
D02*
G37*
G36*
X164500D02*
X160483D01*
X160574Y103814D01*
X161031Y102709D01*
X161760Y101760D01*
X162709Y101031D01*
X163814Y100574D01*
X164500Y100483D01*
Y104500D01*
D02*
G37*
G36*
X25000Y106416D02*
X24124Y106301D01*
X23308Y105963D01*
X22606Y105425D01*
X22069Y104724D01*
X21731Y103908D01*
X21615Y103032D01*
X21731Y102155D01*
X22069Y101339D01*
X22606Y100638D01*
X23308Y100100D01*
X24124Y99762D01*
X25000Y99647D01*
X25876Y99762D01*
X26692Y100100D01*
X27393Y100638D01*
X27931Y101339D01*
X28269Y102155D01*
X28385Y103032D01*
X28269Y103908D01*
X27931Y104724D01*
X27393Y105425D01*
X26692Y105963D01*
X25876Y106301D01*
X25000Y106416D01*
D02*
G37*
G36*
X48722Y102532D02*
X45500D01*
Y99309D01*
X45981Y99372D01*
X46894Y99751D01*
X47679Y100353D01*
X48281Y101137D01*
X48659Y102051D01*
X48722Y102532D01*
D02*
G37*
G36*
X44500D02*
X41278D01*
X41341Y102051D01*
X41719Y101137D01*
X42321Y100353D01*
X43106Y99751D01*
X44019Y99372D01*
X44500Y99309D01*
Y102532D01*
D02*
G37*
G36*
X35500Y101242D02*
Y98020D01*
X38723D01*
X38659Y98500D01*
X38281Y99414D01*
X37679Y100198D01*
X36894Y100801D01*
X35980Y101179D01*
X35500Y101242D01*
D02*
G37*
G36*
X34500D02*
X34020Y101179D01*
X33106Y100801D01*
X32321Y100198D01*
X31719Y99414D01*
X31341Y98500D01*
X31277Y98020D01*
X34500D01*
Y101242D01*
D02*
G37*
G36*
X185500Y101977D02*
Y97961D01*
X189517D01*
X189426Y98647D01*
X188969Y99752D01*
X188240Y100701D01*
X187291Y101429D01*
X186186Y101887D01*
X185500Y101977D01*
D02*
G37*
G36*
X184500Y101977D02*
X183814Y101887D01*
X182709Y101429D01*
X181760Y100701D01*
X181031Y99752D01*
X180574Y98647D01*
X180483Y97961D01*
X184500D01*
Y101977D01*
D02*
G37*
G36*
X38723Y97020D02*
X35500D01*
Y93797D01*
X35980Y93861D01*
X36894Y94239D01*
X37679Y94841D01*
X38281Y95626D01*
X38659Y96539D01*
X38723Y97020D01*
D02*
G37*
G36*
X34500D02*
X31277D01*
X31341Y96539D01*
X31719Y95626D01*
X32321Y94841D01*
X33106Y94239D01*
X34020Y93861D01*
X34500Y93797D01*
Y97020D01*
D02*
G37*
G36*
X184500Y96961D02*
X180483D01*
X180574Y96275D01*
X181031Y95169D01*
X181760Y94220D01*
X182709Y93492D01*
X183814Y93034D01*
X184500Y92944D01*
Y96961D01*
D02*
G37*
G36*
X189517D02*
X185500D01*
Y92944D01*
X186186Y93034D01*
X187291Y93492D01*
X188240Y94220D01*
X188969Y95169D01*
X189426Y96275D01*
X189517Y96961D01*
D02*
G37*
G36*
X45000Y97401D02*
X44124Y97285D01*
X43308Y96947D01*
X42606Y96409D01*
X42069Y95708D01*
X41730Y94892D01*
X41615Y94016D01*
X41730Y93140D01*
X42069Y92323D01*
X42606Y91622D01*
X43308Y91084D01*
X44124Y90746D01*
X45000Y90631D01*
X45876Y90746D01*
X46692Y91084D01*
X47394Y91622D01*
X47931Y92323D01*
X48270Y93140D01*
X48385Y94016D01*
X48270Y94892D01*
X47931Y95708D01*
X47394Y96409D01*
X46692Y96947D01*
X45876Y97285D01*
X45000Y97401D01*
D02*
G37*
G36*
X25000D02*
X24124Y97285D01*
X23308Y96947D01*
X22606Y96409D01*
X22069Y95708D01*
X21731Y94892D01*
X21615Y94016D01*
X21731Y93140D01*
X22069Y92323D01*
X22606Y91622D01*
X23308Y91084D01*
X24124Y90746D01*
X25000Y90631D01*
X25876Y90746D01*
X26692Y91084D01*
X27393Y91622D01*
X27931Y92323D01*
X28269Y93140D01*
X28385Y94016D01*
X28269Y94892D01*
X27931Y95708D01*
X27393Y96409D01*
X26692Y96947D01*
X25876Y97285D01*
X25000Y97401D01*
D02*
G37*
G36*
X148500Y88195D02*
Y86500D01*
X150195D01*
X150119Y86878D01*
X149622Y87622D01*
X148878Y88119D01*
X148500Y88195D01*
D02*
G37*
G36*
X147500D02*
X147122Y88119D01*
X146378Y87622D01*
X145880Y86878D01*
X145805Y86500D01*
X147500D01*
Y88195D01*
D02*
G37*
G36*
X165000Y94179D02*
X163918Y94037D01*
X162910Y93619D01*
X162045Y92955D01*
X161381Y92089D01*
X160963Y91082D01*
X160821Y90000D01*
X160963Y88918D01*
X161381Y87910D01*
X162045Y87045D01*
X162910Y86381D01*
X163918Y85963D01*
X165000Y85821D01*
X166082Y85963D01*
X167089Y86381D01*
X167955Y87045D01*
X168619Y87910D01*
X169037Y88918D01*
X169179Y90000D01*
X169037Y91082D01*
X168619Y92089D01*
X167955Y92955D01*
X167089Y93619D01*
X166082Y94037D01*
X165000Y94179D01*
D02*
G37*
G36*
X35000Y91889D02*
X34124Y91773D01*
X33308Y91435D01*
X32607Y90897D01*
X32069Y90196D01*
X31730Y89380D01*
X31615Y88504D01*
X31730Y87628D01*
X32069Y86812D01*
X32607Y86111D01*
X33308Y85573D01*
X34124Y85234D01*
X35000Y85119D01*
X35876Y85234D01*
X36692Y85573D01*
X37394Y86111D01*
X37931Y86812D01*
X38269Y87628D01*
X38385Y88504D01*
X38269Y89380D01*
X37931Y90196D01*
X37394Y90897D01*
X36692Y91435D01*
X35876Y91773D01*
X35000Y91889D01*
D02*
G37*
G36*
X150195Y85500D02*
X148500D01*
Y83805D01*
X148878Y83881D01*
X149622Y84378D01*
X150119Y85122D01*
X150195Y85500D01*
D02*
G37*
G36*
X147500D02*
X145805D01*
X145880Y85122D01*
X146378Y84378D01*
X147122Y83881D01*
X147500Y83805D01*
Y85500D01*
D02*
G37*
G36*
X45000Y88385D02*
X44124Y88270D01*
X43308Y87931D01*
X42606Y87393D01*
X42069Y86692D01*
X41730Y85876D01*
X41615Y85000D01*
X41730Y84124D01*
X42069Y83308D01*
X42606Y82607D01*
X43308Y82069D01*
X44124Y81731D01*
X45000Y81615D01*
X45876Y81731D01*
X46692Y82069D01*
X47394Y82607D01*
X47931Y83308D01*
X48270Y84124D01*
X48385Y85000D01*
X48270Y85876D01*
X47931Y86692D01*
X47394Y87393D01*
X46692Y87931D01*
X45876Y88270D01*
X45000Y88385D01*
D02*
G37*
G36*
X25000D02*
X24124Y88270D01*
X23308Y87931D01*
X22606Y87393D01*
X22069Y86692D01*
X21731Y85876D01*
X21615Y85000D01*
X21731Y84124D01*
X22069Y83308D01*
X22606Y82607D01*
X23308Y82069D01*
X24124Y81731D01*
X25000Y81615D01*
X25876Y81731D01*
X26692Y82069D01*
X27393Y82607D01*
X27931Y83308D01*
X28269Y84124D01*
X28385Y85000D01*
X28269Y85876D01*
X27931Y86692D01*
X27393Y87393D01*
X26692Y87931D01*
X25876Y88270D01*
X25000Y88385D01*
D02*
G37*
G36*
X35500Y83211D02*
Y79988D01*
X38723D01*
X38659Y80469D01*
X38281Y81382D01*
X37679Y82167D01*
X36894Y82769D01*
X35980Y83147D01*
X35500Y83211D01*
D02*
G37*
G36*
X34500D02*
X34020Y83147D01*
X33106Y82769D01*
X32321Y82167D01*
X31719Y81382D01*
X31341Y80469D01*
X31277Y79988D01*
X34500D01*
Y83211D01*
D02*
G37*
G36*
X185000Y86640D02*
X183918Y86497D01*
X182911Y86080D01*
X182045Y85416D01*
X181381Y84550D01*
X180963Y83542D01*
X180821Y82461D01*
X180963Y81379D01*
X181381Y80371D01*
X182045Y79506D01*
X182911Y78842D01*
X183918Y78424D01*
X185000Y78282D01*
X186082Y78424D01*
X187090Y78842D01*
X187955Y79506D01*
X188619Y80371D01*
X189037Y81379D01*
X189179Y82461D01*
X189037Y83542D01*
X188619Y84550D01*
X187955Y85416D01*
X187090Y86080D01*
X186082Y86497D01*
X185000Y86640D01*
D02*
G37*
G36*
X38723Y78988D02*
X35500D01*
Y75766D01*
X35980Y75829D01*
X36894Y76207D01*
X37679Y76810D01*
X38281Y77594D01*
X38659Y78508D01*
X38723Y78988D01*
D02*
G37*
G36*
X34500D02*
X31277D01*
X31341Y78508D01*
X31719Y77594D01*
X32321Y76810D01*
X33106Y76207D01*
X34020Y75829D01*
X34500Y75766D01*
Y78988D01*
D02*
G37*
G36*
X165500Y79517D02*
Y75500D01*
X169517D01*
X169426Y76186D01*
X168969Y77291D01*
X168240Y78240D01*
X167291Y78969D01*
X166186Y79426D01*
X165500Y79517D01*
D02*
G37*
G36*
X164500D02*
X163814Y79426D01*
X162709Y78969D01*
X161760Y78240D01*
X161031Y77291D01*
X160574Y76186D01*
X160483Y75500D01*
X164500D01*
Y79517D01*
D02*
G37*
G36*
X45000Y79369D02*
X44124Y79254D01*
X43308Y78916D01*
X42606Y78378D01*
X42069Y77677D01*
X41730Y76860D01*
X41615Y75984D01*
X41730Y75108D01*
X42069Y74292D01*
X42606Y73591D01*
X43308Y73053D01*
X44124Y72715D01*
X45000Y72599D01*
X45876Y72715D01*
X46692Y73053D01*
X47394Y73591D01*
X47931Y74292D01*
X48270Y75108D01*
X48385Y75984D01*
X48270Y76860D01*
X47931Y77677D01*
X47394Y78378D01*
X46692Y78916D01*
X45876Y79254D01*
X45000Y79369D01*
D02*
G37*
G36*
X25000D02*
X24124Y79254D01*
X23308Y78916D01*
X22606Y78378D01*
X22069Y77677D01*
X21731Y76860D01*
X21615Y75984D01*
X21731Y75108D01*
X22069Y74292D01*
X22606Y73591D01*
X23308Y73053D01*
X24124Y72715D01*
X25000Y72599D01*
X25876Y72715D01*
X26692Y73053D01*
X27393Y73591D01*
X27931Y74292D01*
X28269Y75108D01*
X28385Y75984D01*
X28269Y76860D01*
X27931Y77677D01*
X27393Y78378D01*
X26692Y78916D01*
X25876Y79254D01*
X25000Y79369D01*
D02*
G37*
G36*
X35500Y74195D02*
Y70972D01*
X38723D01*
X38659Y71453D01*
X38281Y72367D01*
X37679Y73151D01*
X36894Y73753D01*
X35980Y74132D01*
X35500Y74195D01*
D02*
G37*
G36*
X34500D02*
X34020Y74132D01*
X33106Y73753D01*
X32321Y73151D01*
X31719Y72367D01*
X31341Y71453D01*
X31277Y70972D01*
X34500D01*
Y74195D01*
D02*
G37*
G36*
X169517Y74500D02*
X165500D01*
Y70483D01*
X166186Y70574D01*
X167291Y71031D01*
X168240Y71760D01*
X168969Y72709D01*
X169426Y73814D01*
X169517Y74500D01*
D02*
G37*
G36*
X164500D02*
X160483D01*
X160574Y73814D01*
X161031Y72709D01*
X161760Y71760D01*
X162709Y71031D01*
X163814Y70574D01*
X164500Y70483D01*
Y74500D01*
D02*
G37*
G36*
X83157Y71195D02*
Y69500D01*
X84852D01*
X84777Y69878D01*
X84280Y70622D01*
X83535Y71119D01*
X83157Y71195D01*
D02*
G37*
G36*
X82157D02*
X81780Y71119D01*
X81035Y70622D01*
X80538Y69878D01*
X80463Y69500D01*
X82157D01*
Y71195D01*
D02*
G37*
G36*
X84852Y68500D02*
X83157D01*
Y66805D01*
X83535Y66881D01*
X84280Y67378D01*
X84777Y68122D01*
X84852Y68500D01*
D02*
G37*
G36*
X82157D02*
X80463D01*
X80538Y68122D01*
X81035Y67378D01*
X81780Y66881D01*
X82157Y66805D01*
Y68500D01*
D02*
G37*
G36*
X38723Y69972D02*
X35500D01*
Y66750D01*
X35980Y66813D01*
X36894Y67192D01*
X37679Y67794D01*
X38281Y68578D01*
X38659Y69492D01*
X38723Y69972D01*
D02*
G37*
G36*
X34500D02*
X31277D01*
X31341Y69492D01*
X31719Y68578D01*
X32321Y67794D01*
X33106Y67192D01*
X34020Y66813D01*
X34500Y66750D01*
Y69972D01*
D02*
G37*
G36*
X94772Y67195D02*
Y65500D01*
X96466D01*
X96391Y65878D01*
X95894Y66622D01*
X95150Y67119D01*
X94772Y67195D01*
D02*
G37*
G36*
X93772D02*
X93394Y67119D01*
X92650Y66622D01*
X92152Y65878D01*
X92077Y65500D01*
X93772D01*
Y67195D01*
D02*
G37*
G36*
X48356Y70324D02*
X41644D01*
Y63613D01*
X48356D01*
Y70324D01*
D02*
G37*
G36*
X25000Y70353D02*
X24124Y70238D01*
X23308Y69900D01*
X22606Y69362D01*
X22069Y68661D01*
X21731Y67845D01*
X21615Y66969D01*
X21731Y66092D01*
X22069Y65276D01*
X22606Y64575D01*
X23308Y64037D01*
X24124Y63699D01*
X25000Y63584D01*
X25876Y63699D01*
X26692Y64037D01*
X27393Y64575D01*
X27931Y65276D01*
X28269Y66092D01*
X28385Y66969D01*
X28269Y67845D01*
X27931Y68661D01*
X27393Y69362D01*
X26692Y69900D01*
X25876Y70238D01*
X25000Y70353D01*
D02*
G37*
G36*
X96466Y64500D02*
X94772D01*
Y62805D01*
X95150Y62881D01*
X95894Y63378D01*
X96391Y64122D01*
X96466Y64500D01*
D02*
G37*
G36*
X93772D02*
X92077D01*
X92152Y64122D01*
X92650Y63378D01*
X93394Y62881D01*
X93772Y62805D01*
Y64500D01*
D02*
G37*
G36*
X35500Y65179D02*
Y61957D01*
X38723D01*
X38659Y62437D01*
X38281Y63351D01*
X37679Y64135D01*
X36894Y64737D01*
X35980Y65116D01*
X35500Y65179D01*
D02*
G37*
G36*
X34500D02*
X34020Y65116D01*
X33106Y64737D01*
X32321Y64135D01*
X31719Y63351D01*
X31341Y62437D01*
X31277Y61957D01*
X34500D01*
Y65179D01*
D02*
G37*
G36*
X38723Y60957D02*
X35500D01*
Y57734D01*
X35980Y57797D01*
X36894Y58176D01*
X37679Y58778D01*
X38281Y59562D01*
X38659Y60476D01*
X38723Y60957D01*
D02*
G37*
G36*
X34500D02*
X31277D01*
X31341Y60476D01*
X31719Y59562D01*
X32321Y58778D01*
X33106Y58176D01*
X34020Y57797D01*
X34500Y57734D01*
Y60957D01*
D02*
G37*
G36*
X35500Y46644D02*
Y36307D01*
X45837D01*
X45742Y37508D01*
X45344Y39168D01*
X44691Y40745D01*
X43799Y42200D01*
X42691Y43498D01*
X41393Y44606D01*
X39938Y45498D01*
X38361Y46151D01*
X36701Y46549D01*
X35500Y46644D01*
D02*
G37*
G36*
X34500D02*
X33299Y46549D01*
X31639Y46151D01*
X30062Y45498D01*
X28607Y44606D01*
X27310Y43498D01*
X26201Y42200D01*
X25309Y40745D01*
X24656Y39168D01*
X24258Y37508D01*
X24163Y36307D01*
X34500D01*
Y46644D01*
D02*
G37*
G36*
Y35307D02*
X24163D01*
X24258Y34106D01*
X24656Y32446D01*
X25309Y30869D01*
X26201Y29414D01*
X27310Y28117D01*
X28607Y27008D01*
X30062Y26116D01*
X31639Y25463D01*
X33299Y25065D01*
X34500Y24970D01*
Y35307D01*
D02*
G37*
G36*
X45837D02*
X35500D01*
Y24970D01*
X36701Y25065D01*
X38361Y25463D01*
X39938Y26116D01*
X41393Y27008D01*
X42691Y28117D01*
X43799Y29414D01*
X44691Y30869D01*
X45344Y32446D01*
X45742Y34106D01*
X45837Y35307D01*
D02*
G37*
%LPD*%
D27*
X165000Y120000D02*
X183000D01*
D31*
X45000Y66969D02*
D03*
D32*
Y75984D02*
D03*
Y85000D02*
D03*
X25000D02*
D03*
Y94016D02*
D03*
Y66969D02*
D03*
Y75984D02*
D03*
X45000Y94016D02*
D03*
X35000Y88504D02*
D03*
X25000Y103032D02*
D03*
X45000D02*
D03*
X35000Y61457D02*
D03*
Y70472D02*
D03*
Y79488D02*
D03*
Y97520D02*
D03*
D33*
X8000Y8000D02*
D03*
X192000D02*
D03*
Y292000D02*
D03*
X8000D02*
D03*
D34*
X165000Y225000D02*
D03*
Y210000D02*
D03*
Y180000D02*
D03*
Y195000D02*
D03*
Y135000D02*
D03*
Y120000D02*
D03*
Y150000D02*
D03*
Y165000D02*
D03*
Y105000D02*
D03*
Y75000D02*
D03*
Y90000D02*
D03*
X185000Y82461D02*
D03*
Y97461D02*
D03*
Y157461D02*
D03*
Y142461D02*
D03*
Y112461D02*
D03*
Y127461D02*
D03*
Y187461D02*
D03*
Y172461D02*
D03*
Y202461D02*
D03*
Y217461D02*
D03*
D35*
X35000Y35807D02*
D03*
Y134193D02*
D03*
D36*
X27701Y195000D02*
D03*
Y255000D02*
D03*
D37*
X10000Y195000D02*
D03*
Y255000D02*
D03*
D38*
X148000Y86000D02*
D03*
X94272Y65000D02*
D03*
X102342Y114657D02*
D03*
X82657Y69000D02*
D03*
X77342Y106000D02*
D03*
X183000Y120000D02*
D03*
M02*
