M48
;Layer_Color=9474304
;FILE_FORMAT=2:5
INCH,LZ
;TYPE=PLATED
T1F00S00C0.01300
T2F00S00C0.03543
T4F00S00C0.05512
T6F00S00C0.12992
;TYPE=NON_PLATED
T7F00S00C0.10000
%
T01
X0148Y0086
X0094272Y0065
X0082657Y0069
X0077342Y0106
X0102342Y0114657
X0183Y012
T02
X0025Y0066969
Y0075984
Y0085
Y0094016
Y0103032
X0035Y009752
Y0088504
Y0079488
Y0070472
Y0061457
X0045Y0066969
Y0075984
Y0085
Y0094016
Y0103032
T04
X0165Y0075
Y009
Y0105
X0185Y0112461
Y0097461
Y0082461
Y0127461
Y0142461
Y0157461
Y0172461
Y0187461
Y0202461
Y0217461
X0165Y021
Y0225
Y0195
Y018
Y0165
Y015
Y0135
Y012
T06
X0035Y0035807
Y0134193
T07
X0192Y0008
X0008
X0192Y0292
X0008
M30
